<?xml version="1.0" encoding="utf-8"?>
<!-- Generator: Adobe Illustrator 16.2.0, SVG Export Plug-In . SVG Version: 6.00 Build 0)  -->
<!DOCTYPE svg PUBLIC "-//W3C//DTD SVG 1.1//EN" "http://www.w3.org/Graphics/SVG/1.1/DTD/svg11.dtd">
<svg version="1.1" id="图层_1" xmlns="http://www.w3.org/2000/svg" xmlns:xlink="http://www.w3.org/1999/xlink" x="0px" y="0px"
	 width="33.167px" height="40px" viewBox="0 0 33.167 40" enable-background="new 0 0 33.167 40" xml:space="preserve">
<g>
	<polygon fill-rule="evenodd" clip-rule="evenodd" points="9.785,20.547 22.938,8.549 22.938,0 25.044,0 25.044,6.601 32.275,0 
		32.275,2.759 25.044,9.373 25.044,31.467 22.938,31.467 22.938,11.273 9.785,23.322 9.785,31.467 7.694,31.467 7.694,25.204 
		0.831,31.467 0.829,28.788 7.694,22.466 7.694,0 9.785,0 	"/>
</g>
<path fill="#FFFFFF" stroke="#000000" stroke-width="0.1601" stroke-miterlimit="10" d="M26.199,4.337"/>
<path fill="#FFFFFF" stroke="#000000" stroke-width="0.1601" stroke-miterlimit="10" d="M-5.178,35.713"/>
<g>
	<polyline fill-rule="evenodd" clip-rule="evenodd" fill="#241918" points="8.585,35.521 9.258,35.521 9.258,37.379 10.258,37.379 
		10.258,35.521 10.936,35.521 10.936,39.858 10.258,39.858 10.258,37.915 9.258,37.915 9.258,39.858 8.585,39.858 	"/>
	<rect x="12.493" y="35.522" fill-rule="evenodd" clip-rule="evenodd" fill="#231918" width="0.654" height="4.342"/>
	<path fill-rule="evenodd" clip-rule="evenodd" fill="#231917" d="M20.757,37.048c-0.016-0.266-0.022-0.534-0.102-0.794
		c-0.162-0.533-0.568-0.801-1.179-0.785c-0.558,0.015-0.951,0.321-1.083,0.836c-0.083,0.324-0.078,0.656-0.093,0.984
		c-0.022,0.474-0.016,0.948,0.032,1.421c0.024,0.232,0.06,0.464,0.177,0.672c0.232,0.414,0.655,0.586,1.251,0.523
		c0.416-0.044,0.784-0.357,0.895-0.771c0.127-0.474,0.107-0.957,0.105-1.44C20.76,37.479,20.77,37.263,20.757,37.048z
		 M20.035,38.873c-0.02,0.089-0.067,0.241-0.159,0.344c-0.097,0.109-0.239,0.166-0.35,0.164c-0.186,0.002-0.33-0.062-0.408-0.173
		c-0.047-0.066-0.09-0.154-0.118-0.253c-0.078-0.246-0.055-0.383-0.063-0.633c0,0-0.018-1.12,0.063-1.709
		c0.015-0.108,0.073-0.28,0.13-0.374c0.093-0.157,0.207-0.219,0.396-0.219c0.182,0,0.347,0.076,0.423,0.234
		c0.113,0.233,0.127,0.484,0.135,0.734c0.007,0.233,0.001,0.751,0.001,0.751S20.093,38.432,20.035,38.873z"/>
	<path fill-rule="evenodd" clip-rule="evenodd" fill="#241917" d="M24.48,36.386c-0.092-0.567-0.43-0.854-1.048-0.861
		c-0.346-0.004-0.577-0.003-0.577-0.003h-0.689v4.326h0.673v-1.713c0,0,0.005-0.005,0.258-0.005c0.153,0,0.308,0.005,0.46-0.002
		c0.442-0.021,0.737-0.231,0.864-0.63C24.537,37.134,24.54,36.762,24.48,36.386z M23.807,37.226
		c-0.068,0.257-0.211,0.355-0.496,0.365c-0.312,0-0.316,0-0.316,0h-0.158v-1.529h0.184c0,0,0,0,0.289,0
		c0.294,0.014,0.449,0.124,0.505,0.39C23.867,36.707,23.873,36.971,23.807,37.226z"/>
	<path fill-rule="evenodd" clip-rule="evenodd" fill="#241917" d="M16.988,36.328c-0.109-0.564-0.444-0.802-1.069-0.804
		c-0.309-0.002-1.209-0.001-1.209-0.001v4.329h0.674v-1.724h0.177c0,0,0,0,0.499,0c0.507-0.054,0.79-0.245,0.909-0.708
		C17.061,37.059,17.057,36.688,16.988,36.328z M16.326,37.264c-0.095,0.256-0.213,0.316-0.508,0.326c-0.428,0.001-0.434,0-0.434,0
		v-1.528c0,0-0.001,0,0.178,0c0.039,0,0.087,0,0.147,0c0.362-0.001,0.636,0.061,0.665,0.594
		C16.386,36.849,16.397,37.072,16.326,37.264z"/>
</g>
</svg>
